<svg width="26" height="26" viewBox="0 0 26 26" fill="none" xmlns="http://www.w3.org/2000/svg">
<path d="M13 1.57422C5.85965 1.57422 0 7.38309 0 14.5234V20.6172C0 21.8773 1.02507 22.9023 2.28516 22.9023H3.04688V15.2852H2.28516C2.01683 15.2852 1.76287 15.3401 1.52344 15.4255V14.5234C1.52344 8.22291 6.69947 3.09766 13 3.09766C19.3005 3.09766 24.4766 8.22291 24.4766 14.5234V15.4255C24.2371 15.3401 23.9832 15.2852 23.7148 15.2852H22.9531V22.9023H23.7148C24.9749 22.9023 26 21.8773 26 20.6172V14.5234C26 7.38309 20.1404 1.57422 13 1.57422Z" fill="white"/>
<path d="M6.85547 13.7617H6.09375C5.25236 13.7617 4.57031 14.4438 4.57031 15.2852V22.9023C4.57031 23.7437 5.25236 24.4258 6.09375 24.4258H6.85547C7.27614 24.4258 7.61719 24.0847 7.61719 23.6641V14.5234C7.61719 14.1028 7.27614 13.7617 6.85547 13.7617Z" fill="white"/>
<path d="M19.9062 13.7617H19.1445C18.7239 13.7617 18.3828 14.1028 18.3828 14.5234V23.6641C18.3828 24.0847 18.7239 24.4258 19.1445 24.4258H19.9062C20.7476 24.4258 21.4297 23.7437 21.4297 22.9023V15.2852C21.4297 14.4438 20.7476 13.7617 19.9062 13.7617Z" fill="white"/>
</svg>
