<svg width="15" height="16" viewBox="0 0 15 16" fill="none" xmlns="http://www.w3.org/2000/svg">
<path d="M10.3124 -3.05176e-05H4.68744C2.099 -3.05176e-05 -6.10352e-05 2.23897 -6.10352e-05 4.99997V11C-6.10352e-05 13.761 2.099 16 4.68744 16H10.3124C12.9009 16 14.9999 13.761 14.9999 11V4.99997C14.9999 2.23897 12.9009 -3.05176e-05 10.3124 -3.05176e-05ZM13.5937 11C13.5937 12.93 12.1218 14.5 10.3124 14.5H4.68744C2.87806 14.5 1.40619 12.93 1.40619 11V4.99997C1.40619 3.06997 2.87806 1.49997 4.68744 1.49997H10.3124C12.1218 1.49997 13.5937 3.06997 13.5937 4.99997V11Z" fill="black"/>
<path d="M7.5 4.00003C5.42906 4.00003 3.75 5.79103 3.75 8.00003C3.75 10.209 5.42906 12 7.5 12C9.57094 12 11.25 10.209 11.25 8.00003C11.25 5.79103 9.57094 4.00003 7.5 4.00003ZM7.5 10.5C6.20813 10.5 5.15625 9.37803 5.15625 8.00003C5.15625 6.62103 6.20813 5.50003 7.5 5.50003C8.79188 5.50003 9.84375 6.62103 9.84375 8.00003C9.84375 9.37803 8.79188 10.5 7.5 10.5Z" fill="black"/>
<path d="M11.5313 4.23296C11.8073 4.23296 12.031 3.99433 12.031 3.69996C12.031 3.40559 11.8073 3.16696 11.5313 3.16696C11.2553 3.16696 11.0316 3.40559 11.0316 3.69996C11.0316 3.99433 11.2553 4.23296 11.5313 4.23296Z" fill="black"/>
</svg>
