<svg width="31" height="31" viewBox="0 0 31 31" fill="none" xmlns="http://www.w3.org/2000/svg">
<path d="M15.5 0C6.95354 0 0 6.95294 0 15.5C0 24.0471 6.95354 31 15.5 31C24.0465 31 31 24.0471 31 15.5C31 6.95294 24.0465 0 15.5 0ZM15.5 29.8077C7.6111 29.8077 1.19231 23.3889 1.19231 15.5C1.19231 7.6111 7.6111 1.19231 15.5 1.19231C23.3889 1.19231 29.8077 7.6111 29.8077 15.5C29.8077 23.3889 23.3889 29.8077 15.5 29.8077Z" fill="#C2C2C2"/>
<path d="M23.2505 14.9038H7.75045C7.42137 14.9038 7.1543 15.1703 7.1543 15.5C7.1543 15.8297 7.42137 16.0962 7.75045 16.0962H23.2505C23.5795 16.0962 23.8466 15.8297 23.8466 15.5C23.8466 15.1703 23.5795 14.9038 23.2505 14.9038Z" fill="#C2C2C2"/>
</svg>
