<svg width="12" height="18" viewBox="0 0 12 18" fill="none" xmlns="http://www.w3.org/2000/svg">
<path d="M6.00001 0C2.69167 0 0 2.69167 0 6.00001C0 6.99318 0.248308 7.9779 0.720351 8.85132L5.6719 17.8066C5.73782 17.926 5.86343 18 6.00001 18C6.13659 18 6.26221 17.926 6.32812 17.8066L11.2815 8.84837C11.7517 7.9779 12 6.99314 12 5.99998C12 2.69167 9.30835 0 6.00001 0ZM6.00001 9C4.34584 9 3.00002 7.65418 3.00002 6.00001C3.00002 4.34584 4.34584 3.00002 6.00001 3.00002C7.65418 3.00002 9 4.34584 9 6.00001C9 7.65418 7.65418 9 6.00001 9Z" fill="white"/>
</svg>
