<svg width="47" height="47" viewBox="0 0 47 47" fill="none" xmlns="http://www.w3.org/2000/svg">
<path d="M23.1 3.08C27.0596 3.08 30.9303 4.25415 34.2225 6.45398C37.5148 8.6538 40.0808 11.7805 41.5961 15.4387C43.1114 19.0969 43.5078 23.1222 42.7353 27.0057C41.9629 30.8892 40.0561 34.4564 37.2563 37.2563C34.4564 40.0561 30.8892 41.9628 27.0057 42.7353C23.1222 43.5078 19.0969 43.1113 15.4387 41.5961C11.7805 40.0808 8.65382 37.5148 6.45399 34.2225C4.25416 30.9302 3.08001 27.0596 3.08001 23.1C3.08001 17.7904 5.18926 12.6982 8.94373 8.94372C12.6982 5.18924 17.7904 3.08 23.1 3.08V3.08ZM23.1 0C18.5313 0 14.0651 1.35479 10.2663 3.89305C6.46756 6.43131 3.50678 10.039 1.75839 14.26C0.0100089 18.481 -0.447448 23.1256 0.443871 27.6066C1.33519 32.0875 3.53525 36.2036 6.76585 39.4342C9.99644 42.6648 14.1125 44.8648 18.5934 45.7561C23.0744 46.6475 27.719 46.19 31.94 44.4416C36.161 42.6932 39.7687 39.7324 42.307 35.9337C44.8452 32.1349 46.2 27.6687 46.2 23.1C46.2 16.9735 43.7663 11.0979 39.4342 6.76583C35.1021 2.43374 29.2265 0 23.1 0Z" fill="white"/>
<path d="M21.56 35.42V10.78L13.4134 15.6464C12.1409 16.4043 11.0872 17.4799 10.3556 18.7676C9.62397 20.0554 9.23954 21.5112 9.23999 22.9922C9.23929 24.443 9.60789 25.8701 10.3111 27.1391C11.0143 28.408 12.0289 29.4771 13.2594 30.2456L21.56 35.42ZM23.1 18.48V27.72L24.64 26.3648C25.1112 25.9656 25.4921 25.4709 25.7576 24.9134C26.0231 24.3558 26.1671 23.7482 26.18 23.1308C26.1478 22.5394 25.9944 21.9608 25.7295 21.4311C25.4647 20.9013 25.0938 20.4315 24.64 20.0508L23.1 18.48Z" fill="white"/>
<path d="M24.6399 31.4161C24.4357 31.4365 24.2317 31.3749 24.0729 31.245C23.914 31.115 23.8133 30.9273 23.7929 30.7231C23.7725 30.5188 23.834 30.3149 23.964 30.156C24.0939 29.9972 24.2817 29.8965 24.4859 29.8761C26.0525 29.5579 27.4609 28.708 28.4726 27.4703C29.4842 26.2326 30.0368 24.6832 30.0368 23.0847C30.0368 21.4861 29.4842 19.9367 28.4726 18.699C27.4609 17.4613 26.0525 16.6114 24.4859 16.2933C24.3831 16.2748 24.285 16.236 24.1974 16.1792C24.1098 16.1223 24.0344 16.0486 23.9756 15.9623C23.9168 15.876 23.8759 15.7788 23.8551 15.6764C23.8343 15.5741 23.8342 15.4686 23.8547 15.3662C23.8751 15.2638 23.9158 15.1665 23.9744 15.08C24.0329 14.9935 24.1081 14.9196 24.1956 14.8625C24.283 14.8054 24.381 14.7664 24.4837 14.7476C24.5865 14.7288 24.6919 14.7308 24.7939 14.7533C26.7086 15.1421 28.43 16.1808 29.6665 17.6936C30.9029 19.2064 31.5784 21.1001 31.5784 23.0539C31.5784 25.0076 30.9029 26.9013 29.6665 28.4141C28.43 29.9269 26.7086 30.9657 24.7939 31.3545H24.6399V31.4161Z" fill="white"/>
<path d="M28.0743 34.8964C27.8742 34.9183 27.6735 34.8619 27.5141 34.739C27.3546 34.6162 27.2489 34.4364 27.2191 34.2374C27.1892 34.0384 27.2375 33.8355 27.3539 33.6713C27.4703 33.5071 27.6456 33.3942 27.8433 33.3564C30.0344 32.6701 31.9492 31.3022 33.3086 29.4518C34.6681 27.6014 35.4012 25.3653 35.4012 23.0692C35.4012 20.7732 34.6681 18.5371 33.3086 16.6867C31.9492 14.8363 30.0344 13.4683 27.8433 12.782C27.6391 12.7208 27.4676 12.5809 27.3665 12.3932C27.2654 12.2054 27.2431 11.9853 27.3043 11.781C27.3656 11.5768 27.5055 11.4053 27.6932 11.3042C27.8809 11.2031 28.1011 11.1808 28.3053 11.242C30.8103 12.0258 32.9995 13.5891 34.5538 15.7041C36.1082 17.8191 36.9464 20.3752 36.9464 22.9999C36.9464 25.6247 36.1082 28.1808 34.5538 30.2958C32.9995 32.4108 30.8103 33.9741 28.3053 34.7578L28.0743 34.8964Z" fill="white"/>
</svg>
