<svg width="32" height="31" viewBox="0 0 32 31" fill="none" xmlns="http://www.w3.org/2000/svg">
<path d="M16 0C7.45354 0 0.5 6.95294 0.5 15.5C0.5 24.0471 7.45354 31 16 31C24.5465 31 31.5 24.0471 31.5 15.5C31.5 6.95294 24.5465 0 16 0ZM16 29.8077C8.1111 29.8077 1.69231 23.3889 1.69231 15.5C1.69231 7.6111 8.1111 1.19231 16 1.19231C23.8889 1.19231 30.3077 7.6111 30.3077 15.5C30.3077 23.3889 23.8889 29.8077 16 29.8077Z" fill="#FF1919"/>
<path d="M23.4512 14.9038H16.5954V8.34615C16.5954 8.01648 16.3283 7.75 15.9992 7.75C15.6702 7.75 15.4031 8.01648 15.4031 8.34615V14.9038H8.54733C8.21825 14.9038 7.95117 15.1703 7.95117 15.5C7.95117 15.8297 8.21825 16.0962 8.54733 16.0962H15.4031V23.25C15.4031 23.5797 15.6702 23.8462 15.9992 23.8462C16.3283 23.8462 16.5954 23.5797 16.5954 23.25V16.0962H23.4512C23.7802 16.0962 24.0473 15.8297 24.0473 15.5C24.0473 15.1703 23.7802 14.9038 23.4512 14.9038Z" fill="#FF1919"/>
</svg>
