<svg width="18" height="18" viewBox="0 0 18 18" fill="none" xmlns="http://www.w3.org/2000/svg">
<g clip-path="url(#clip0)">
<path d="M11.5442 8.03356L7.64406 5.89957C7.41981 5.77686 7.15474 5.78144 6.93493 5.91169C6.71499 6.04207 6.5838 6.27238 6.5838 6.52802V10.7594C6.5838 11.0138 6.71418 11.2437 6.93264 11.3742C7.04672 11.4424 7.17319 11.4766 7.29993 11.4766C7.41603 11.4766 7.5324 11.4479 7.63948 11.3903L11.5398 9.29303C11.7713 9.16845 11.9158 8.92776 11.9169 8.66471C11.9178 8.40167 11.7751 8.1599 11.5442 8.03356ZM7.61834 10.2271V7.06462L10.5332 8.65959L7.61834 10.2271Z" fill="black"/>
<path d="M17.5239 5.29357L17.5231 5.28549C17.5081 5.1434 17.3593 3.87948 16.7448 3.23662C16.0346 2.48048 15.2295 2.38862 14.8422 2.34458C14.8102 2.34094 14.7808 2.33757 14.7546 2.33407L14.7237 2.33084C12.3899 2.16113 8.86521 2.13796 8.82992 2.13783L8.82683 2.1377L8.82373 2.13783C8.78844 2.13796 5.2638 2.16113 2.90892 2.33084L2.87781 2.33407C2.85276 2.33744 2.82515 2.34054 2.79511 2.34404C2.41233 2.38822 1.61579 2.48021 0.903558 3.26369C0.318341 3.89969 0.149173 5.13653 0.131798 5.27553L0.129778 5.29357C0.124525 5.3527 -6.10352e-05 6.76033 -6.10352e-05 8.17348V9.4945C-6.10352e-05 10.9076 0.124525 12.3153 0.129778 12.3745L0.130721 12.3834C0.145671 12.5232 0.294366 13.764 0.905983 14.4071C1.57376 15.1379 2.41812 15.2346 2.87229 15.2866C2.94408 15.2948 3.0059 15.3018 3.04805 15.3093L3.08886 15.3149C4.43641 15.4431 8.66143 15.5063 8.84056 15.5089L8.84595 15.509L8.85134 15.5089C8.88663 15.5087 12.4111 15.4856 14.745 15.3159L14.7758 15.3126C14.8053 15.3087 14.8385 15.3052 14.8748 15.3014C15.2555 15.261 16.0477 15.1771 16.7501 14.4043C17.3353 13.7682 17.5046 12.5313 17.5219 12.3924L17.5239 12.3744C17.5291 12.3151 17.6539 10.9076 17.6539 9.4945V8.17348C17.6537 6.76033 17.5291 5.35284 17.5239 5.29357ZM16.6192 9.4945C16.6192 10.8025 16.505 12.1495 16.4942 12.2731C16.4503 12.6137 16.2718 13.3963 15.9867 13.7062C15.5471 14.1899 15.0955 14.2378 14.7657 14.2727C14.7259 14.2769 14.689 14.2809 14.6556 14.2851C12.3982 14.4483 9.00663 14.4734 8.8504 14.4743C8.67517 14.4718 4.51197 14.4081 3.2055 14.2867C3.13856 14.2758 3.06624 14.2674 2.99 14.2588C2.60332 14.2145 2.07399 14.1539 1.66697 13.7062L1.6574 13.696C1.37725 13.4041 1.20391 12.6723 1.15987 12.2772C1.15165 12.1837 1.03447 10.8208 1.03447 9.4945V8.17348C1.03447 6.867 1.14842 5.52147 1.15946 5.39526C1.21186 4.99403 1.39369 4.2589 1.66697 3.96178C2.12006 3.46343 2.59779 3.40821 2.91377 3.37171C2.94394 3.36821 2.97209 3.36497 2.99809 3.36161C5.28831 3.19756 8.70426 3.17318 8.82683 3.17224C8.94939 3.17304 12.3641 3.19756 14.634 3.36161C14.6619 3.36511 14.6923 3.36861 14.7251 3.37238C15.0501 3.40942 15.5413 3.46545 15.9921 3.94629L15.9962 3.95073C16.2764 4.2426 16.4497 4.98716 16.4938 5.39028C16.5016 5.4785 16.6192 6.84437 16.6192 8.17348V9.4945Z" fill="black"/>
</g>
<defs>
<clipPath id="clip0">
<rect x="-6.10352e-05" y="-6.10352e-05" width="17.6538" height="17.6538" fill="white"/>
</clipPath>
</defs>
</svg>
