<svg width="27" height="27" viewBox="0 0 27 27" fill="none" xmlns="http://www.w3.org/2000/svg">
<path d="M13.5 0C8.26601 0 4.00781 4.2582 4.00781 9.49219C4.00781 11.2606 4.49766 12.9864 5.42473 14.4836L12.9597 26.6261C13.104 26.8587 13.3583 27 13.6318 27C13.6339 27 13.6359 27 13.6381 27C13.9139 26.9978 14.1687 26.8521 14.3104 26.6155L21.6533 14.3554C22.5292 12.8898 22.9922 11.2081 22.9922 9.49219C22.9922 4.2582 18.734 0 13.5 0ZM20.2957 13.5431L13.6198 24.6895L6.76935 13.6501C5.99769 12.4039 5.5793 10.9661 5.5793 9.49219C5.5793 5.13053 9.13834 1.57148 13.5 1.57148C17.8617 1.57148 21.4154 5.13053 21.4154 9.49219C21.4154 10.9224 21.0246 12.3234 20.2957 13.5431Z" fill="white"/>
<path d="M13.5 4.74609C10.883 4.74609 8.75391 6.87519 8.75391 9.49219C8.75391 12.0925 10.8484 14.2383 13.5 14.2383C16.1843 14.2383 18.2461 12.0639 18.2461 9.49219C18.2461 6.87519 16.117 4.74609 13.5 4.74609ZM13.5 12.6668C11.7462 12.6668 10.3254 11.2412 10.3254 9.49219C10.3254 7.74752 11.7553 6.31758 13.5 6.31758C15.2447 6.31758 16.6693 7.74752 16.6693 9.49219C16.6693 11.2157 15.2816 12.6668 13.5 12.6668Z" fill="white"/>
</svg>
