<svg width="170" height="170" viewBox="0 0 170 170" fill="none" xmlns="http://www.w3.org/2000/svg">
<path d="M152.869 149.326L141.783 104.98C139.927 97.5651 133.292 92.4232 125.649 92.4232H97.933V60.9749C97.933 48.5423 84.7912 40.6466 73.866 46.0999L51.6933 57.1861C46.0235 60.021 42.5382 65.7206 42.5382 72.0611V82.3105C35.4912 85.761 29.412 90.9354 24.8824 97.4475C19.4863 105.205 16.6338 114.317 16.6338 123.798C16.6338 149.268 37.3562 169.991 62.827 169.991C87.6788 169.991 108.006 150.262 108.98 125.645H112.665L120.602 157.399C122.85 166.373 131.909 171.724 140.769 169.495C149.662 167.274 155.09 158.228 152.869 149.326ZM56.6512 67.1019L78.8202 56.0177C80.3333 55.2626 82.0748 55.259 83.5524 55.9127C83.5524 55.9127 83.5524 55.9127 83.5527 55.9127C85.5256 56.785 86.8843 58.7682 86.8843 60.9749V84.3173C83.4703 82.2398 79.7161 80.588 75.7609 79.4411V78.9145C75.7609 75.8532 73.279 73.3713 70.2177 73.3713C67.1563 73.3713 64.7116 75.8532 64.7116 78.9145V105.32C64.7116 108.377 62.1878 110.864 59.1315 110.864C56.0751 110.864 53.5882 108.377 53.5882 105.32V72.0614H53.5879C53.5875 69.947 54.7616 68.0471 56.6512 67.1019ZM62.827 158.905C43.4692 158.905 27.7203 143.156 27.7203 123.798C27.7203 112.152 33.3619 101.616 42.5382 95.1465V105.32C42.5382 114.49 49.9611 121.95 59.1308 121.95C68.3005 121.95 75.7602 114.49 75.7602 105.32V91.1492C80.5823 93.0531 84.844 95.9776 88.3114 99.6409C88.3788 99.714 88.4448 99.7877 88.5162 99.8571C88.9475 100.321 89.3699 100.791 89.7753 101.277C89.8493 101.374 89.925 101.469 90.0051 101.561C94.9872 107.658 97.934 115.43 97.934 123.797C97.934 143.156 82.1854 158.905 62.827 158.905ZM138.074 158.742C135.156 159.475 132.115 157.731 131.357 154.708L122.371 118.758C121.754 116.291 119.537 114.597 116.994 114.597H108.094C107.305 110.712 106.026 106.956 104.32 103.473H125.649C128.197 103.473 130.409 105.2 131.027 107.67L142.113 152.013C142.854 154.982 141.046 157.999 138.074 158.742Z" fill="white"/>
<path d="M86.8465 0C74.6205 0 64.6738 9.94666 64.6738 22.1727C64.6738 34.3988 74.6205 44.3454 86.8465 44.3454C99.0726 44.3454 109.019 34.3988 109.019 22.1727C109.019 9.94666 99.0726 0 86.8465 0ZM86.8465 33.2589C80.7335 33.2589 75.76 28.2854 75.76 22.1727C75.76 16.06 80.7335 11.0862 86.8465 11.0862C92.9596 11.0862 97.9327 16.0597 97.9327 22.1727C97.9327 28.2857 92.9596 33.2589 86.8465 33.2589Z" fill="white"/>
</svg>
