<svg width="28" height="28" viewBox="0 0 28 28" fill="none" xmlns="http://www.w3.org/2000/svg">
<path d="M26.8444 0H1.15633C0.762048 0 0.439453 0.322594 0.439453 0.716876C0.439453 1.11116 0.762048 1.43375 1.15633 1.43375H2.70359V27.2652C2.70359 27.5281 2.84696 27.773 3.07995 27.8984C3.31293 28.0239 3.59371 28.0119 3.81475 27.8626L6.92719 25.7896L10.0516 27.8686C10.2905 28.0299 10.6072 28.0299 10.8461 27.8686L13.9585 25.7956L17.0829 27.8745C17.3219 28.0358 17.6385 28.0358 17.8775 27.8745L20.9899 25.8016L24.1143 27.8805C24.2338 27.9582 24.3712 28 24.5086 28C24.6221 28 24.7416 27.9701 24.8491 27.9164C25.0821 27.7909 25.2255 27.546 25.2255 27.2831L25.2135 1.45167H26.8444C27.2387 1.45167 27.5613 1.12908 27.5613 0.734798C27.5613 0.340516 27.2387 0 26.8444 0ZM23.7977 25.927L21.3902 24.326C21.1512 24.1647 20.8346 24.1647 20.5956 24.326L17.4832 26.4049L14.3588 24.326C14.1198 24.1647 13.8032 24.1647 13.5643 24.326L10.4518 26.399L7.32744 24.326C7.08848 24.1647 6.77186 24.1647 6.5329 24.326L4.13734 25.9211V1.42778H23.7917L23.7977 25.927Z" fill="white"/>
<path d="M7.43563 11.4461H14.9449C15.3392 11.4461 15.6618 11.1235 15.6618 10.7292C15.6618 10.3349 15.3392 10.0123 14.9449 10.0123H7.43563C7.04134 10.0123 6.71875 10.3349 6.71875 10.7292C6.71875 11.1235 7.03537 11.4461 7.43563 11.4461Z" fill="white"/>
<path d="M7.43563 13.9373H13.0631C13.4574 13.9373 13.78 13.6147 13.78 13.2205C13.78 12.8262 13.4574 12.5036 13.0631 12.5036H7.43563C7.04134 12.5036 6.71875 12.8262 6.71875 13.2205C6.71875 13.6147 7.03537 13.9373 7.43563 13.9373Z" fill="white"/>
<path d="M18.6954 11.4461H20.5712C20.9655 11.4461 21.2881 11.1235 21.2881 10.7292C21.2881 10.3349 20.9655 10.0123 20.5712 10.0123H18.6954C18.3011 10.0123 17.9785 10.3349 17.9785 10.7292C17.9785 11.1235 18.2951 11.4461 18.6954 11.4461Z" fill="white"/>
<path d="M18.6954 13.9373H20.5712C20.9655 13.9373 21.2881 13.6147 21.2881 13.2205C21.2881 12.8262 20.9655 12.5036 20.5712 12.5036H18.6954C18.3011 12.5036 17.9785 12.8262 17.9785 13.2205C17.9785 13.6147 18.2951 13.9373 18.6954 13.9373Z" fill="white"/>
<path d="M7.43563 5.69318H14.9449C15.3392 5.69318 15.6618 5.37059 15.6618 4.97631C15.6618 4.58202 15.3392 4.25943 14.9449 4.25943H7.43563C7.04134 4.25943 6.71875 4.58202 6.71875 4.97631C6.71875 5.37059 7.03537 5.69318 7.43563 5.69318Z" fill="white"/>
<path d="M7.43563 8.1782H13.0631C13.4574 8.1782 13.78 7.85561 13.78 7.46132C13.78 7.06704 13.4574 6.74445 13.0631 6.74445H7.43563C7.04134 6.74445 6.71875 7.06704 6.71875 7.46132C6.71875 7.85561 7.03537 8.1782 7.43563 8.1782Z" fill="white"/>
<path d="M18.6954 5.69318H20.5712C20.9655 5.69318 21.2881 5.37059 21.2881 4.97631C21.2881 4.58202 20.9655 4.25943 20.5712 4.25943H18.6954C18.3011 4.25943 17.9785 4.58202 17.9785 4.97631C17.9785 5.37059 18.2951 5.69318 18.6954 5.69318Z" fill="white"/>
<path d="M18.6954 8.1782H20.5712C20.9655 8.1782 21.2881 7.85561 21.2881 7.46132C21.2881 7.06704 20.9655 6.74445 20.5712 6.74445H18.6954C18.3011 6.74445 17.9785 7.06704 17.9785 7.46132C17.9785 7.85561 18.2951 8.1782 18.6954 8.1782Z" fill="white"/>
<path d="M7.43563 17.2704H14.9449C15.3392 17.2704 15.6618 16.9478 15.6618 16.5535C15.6618 16.1592 15.3392 15.8366 14.9449 15.8366H7.43563C7.04134 15.8366 6.71875 16.1592 6.71875 16.5535C6.71875 16.9478 7.03537 17.2704 7.43563 17.2704Z" fill="white"/>
<path d="M7.43563 19.756H13.0631C13.4574 19.756 13.78 19.4334 13.78 19.0392C13.78 18.6449 13.4574 18.3223 13.0631 18.3223H7.43563C7.04134 18.3223 6.71875 18.6449 6.71875 19.0392C6.71875 19.4334 7.03537 19.756 7.43563 19.756Z" fill="white"/>
<path d="M18.6954 17.2704H20.5712C20.9655 17.2704 21.2881 16.9478 21.2881 16.5535C21.2881 16.1592 20.9655 15.8366 20.5712 15.8366H18.6954C18.3011 15.8366 17.9785 16.1592 17.9785 16.5535C17.9785 16.9478 18.2951 17.2704 18.6954 17.2704Z" fill="white"/>
<path d="M18.6954 19.756H20.5712C20.9655 19.756 21.2881 19.4334 21.2881 19.0392C21.2881 18.6449 20.9655 18.3223 20.5712 18.3223H18.6954C18.3011 18.3223 17.9785 18.6449 17.9785 19.0392C17.9785 19.4334 18.2951 19.756 18.6954 19.756Z" fill="white"/>
</svg>
