<svg width="22" height="22" viewBox="0 0 22 22" fill="none" xmlns="http://www.w3.org/2000/svg">
<path d="M11.9756 11.1969L21.172 2.00042C21.4958 1.67664 21.4958 1.15169 21.172 0.827949C20.8482 0.50421 20.3233 0.504168 19.9996 0.827949L10.8031 10.0244L1.60671 0.827949C1.28293 0.504168 0.757982 0.504168 0.434242 0.827949C0.110502 1.15173 0.110461 1.67668 0.434242 2.00042L9.63064 11.1968L0.434242 20.3933C0.110461 20.717 0.110461 21.242 0.434242 21.5657C0.596112 21.7276 0.808304 21.8085 1.0205 21.8085C1.23269 21.8085 1.44484 21.7276 1.60675 21.5657L10.8031 12.3693L19.9995 21.5657C20.1614 21.7276 20.3736 21.8085 20.5858 21.8085C20.798 21.8085 21.0101 21.7276 21.172 21.5657C21.4958 21.242 21.4958 20.717 21.172 20.3933L11.9756 11.1969Z" fill="#2F2F2F"/>
</svg>
