<svg width="42" height="42" viewBox="0 0 42 42" fill="none" xmlns="http://www.w3.org/2000/svg">
<path d="M35.9391 28.6606C36.382 28.148 36.4132 27.4081 36.0145 26.861L34.4806 24.7512C34.1714 24.3263 33.6735 24.0728 33.1485 24.0728H32.3356V21.986C32.3356 21.1394 31.3242 20.7007 30.7057 21.2748L29.9166 22.0082H28.7083V21.7506C28.7083 21.2147 28.2739 20.7802 27.738 20.7802H26.8069C27.0752 20.4029 27.021 19.9099 26.7832 19.6261L25.0778 17.5827L27.5756 12.5355L31.9058 11.401L33.1042 11.4412C33.758 11.4625 34.2009 10.8481 34.0935 10.329L33.8532 9.16658C33.8015 8.7154 33.4348 8.35127 32.9771 8.30943L32.5169 8.2676L33.0796 7.4883C33.4406 6.98873 33.2503 6.28416 32.6883 6.03397L29.6639 4.68463C29.3251 4.5337 28.9232 4.59112 28.6402 4.83147L27.8912 5.46803L26.5846 5.34909C23.5249 1.15663 23.7283 1.39699 23.5364 1.26574C21.4275 -0.184578 21.7499 -0.168171 20.5399 0.234602C19.923 0.440501 19.6786 1.18608 20.0559 1.71682L20.722 2.65608L17.8879 5.83307L14.5297 7.56467C14.332 7.66639 14.1737 7.83537 14.0851 8.03963L12.8096 10.9672L12.726 10.9582L12.6644 10.5448C12.6054 10.1551 12.3207 9.84177 11.9385 9.74744C10.7072 9.44064 10.9894 9.51529 10.5415 9.38486C11.0485 8.90334 10.9574 8.24134 10.5399 7.89361C10.521 7.87639 9.1069 6.61967 9.08721 6.60417C8.66229 6.26456 8.04213 6.34002 7.71081 6.77233L5.90448 9.13467C5.64198 9.47756 5.64854 9.94923 5.87331 10.2691L7.63608 12.7578L7.37358 12.8669C6.81905 13.0983 6.60577 13.7725 6.92651 14.2802C6.92815 14.2835 6.93061 14.2868 6.93225 14.2893L7.5926 15.2941C7.78948 15.6026 8.13729 15.7716 8.50225 15.7363L9.62772 15.6272L12.3913 20.2503C12.502 20.4357 12.703 20.5497 12.9187 20.5497H12.9195C13.397 20.5497 13.6923 20.0288 13.4478 19.6187L10.599 14.8545C10.4078 14.5345 10.0436 14.3508 9.67283 14.3869L8.54006 14.496L8.13647 13.8816L8.41045 13.7675C8.67459 13.6576 8.87557 13.4378 8.9617 13.1646C9.04866 12.8915 9.0101 12.5961 8.85752 12.3541C8.85178 12.3451 8.84522 12.3361 8.83948 12.3271L6.99878 9.72931L8.51791 7.74259L9.53346 8.64494C9.38417 8.78767 8.94366 9.12728 9.09131 9.73669C9.17252 10.073 9.4301 10.3421 9.76233 10.4389C10.8074 10.744 10.3046 10.6087 11.4734 10.8991L11.539 11.3388C11.604 11.7739 11.9538 12.1107 12.391 12.1591L12.8646 12.2115C13.2895 12.2591 13.6906 12.0269 13.8613 11.6348L15.1761 8.61532C18.7788 6.7574 18.609 6.87224 18.7739 6.68767L21.7786 3.32037C22.0821 2.98076 22.1092 2.48374 21.8459 2.11295L21.2626 1.291L21.3561 1.25983L22.8031 2.25397L25.6601 6.16997C25.8242 6.39474 26.0777 6.53829 26.3558 6.56372C28.541 6.76224 28.1062 6.90005 29.3129 5.87466L31.8952 7.0272L31.2521 7.91806C30.8124 8.52591 31.2028 9.38388 31.9501 9.45196L32.6696 9.51677L32.8106 10.2001C31.4408 10.155 32.5621 9.95727 27.1491 11.3747C26.8776 11.4461 26.6503 11.6315 26.5257 11.8833L23.8983 17.1905C23.7449 17.5014 23.7695 17.8739 23.9623 18.1618C23.9746 18.179 23.9877 18.1962 24.0008 18.2127L25.6783 20.2223C25.6209 20.2929 25.6512 20.2543 25.4264 20.5636C24.9884 21.1649 25.4191 22.0105 26.163 22.0105H27.478V22.2681C27.478 22.8018 27.9146 23.2385 28.4484 23.2385H30.0184C30.4827 23.2385 30.6869 22.9719 31.1053 22.5831V24.3328C31.1053 24.8684 31.5409 25.3032 32.0757 25.3032C33.188 25.3032 33.3242 25.2523 33.4858 25.4746L35.0197 27.5844C35.0795 27.6672 35.0754 27.7788 35.0082 27.8559L34.443 28.5113C34.2076 28.7837 34.3142 28.4876 33.1511 34.652C33.106 34.8899 33.1511 35.1343 33.2782 35.3402L34.3537 37.0882L32.298 40.6621L26.7406 37.0579C26.3312 36.7925 25.7905 37.0864 25.7905 37.5742C25.7905 37.7829 25.8962 37.9773 26.0712 38.0906L31.8435 41.8335C32.3094 42.1485 32.9467 42.0025 33.2282 41.5135L35.4971 37.5672C35.6751 37.2579 35.6694 36.8781 35.4823 36.5746L34.3782 34.7807L35.42 29.2619L35.9391 28.6606Z" fill="white"/>
<path d="M24.4092 35.5496L20.2571 32.8589C20.0881 32.7383 19.9815 32.5512 19.9643 32.338L19.7994 30.599C19.7772 30.3299 19.6919 30.0641 19.5533 29.8328L14.7439 21.8417C14.6332 21.6563 14.4322 21.5422 14.2157 21.5422C13.8564 21.5422 13.5996 21.8375 13.5996 22.1583C13.5996 22.2633 13.6275 22.3716 13.6882 22.4725L18.4967 30.4637C18.5402 30.5359 18.5664 30.6179 18.5738 30.7082L18.7379 32.4463C18.7863 33.0238 19.0865 33.5438 19.5615 33.8736C19.5672 33.8777 19.573 33.881 19.5779 33.8851L23.7398 36.5824C24.1492 36.8478 24.6899 36.5539 24.6899 36.066C24.6899 35.8573 24.5843 35.663 24.4092 35.5496Z" fill="white"/>
</svg>
