<svg width="30" height="30" viewBox="0 0 30 30" fill="none" xmlns="http://www.w3.org/2000/svg">
<path d="M15 1.875C22.3125 1.875 28.125 7.6875 28.125 15C28.125 22.3125 22.3125 28.125 15 28.125C7.6875 28.125 1.875 22.3125 1.875 15C1.875 7.6875 7.6875 1.875 15 1.875ZM15 0C6.75 0 0 6.75 0 15C0 23.25 6.75 30 15 30C23.25 30 30 23.25 30 15C30 6.75 23.25 0 15 0Z" fill="#444444"/>
<path d="M7.5 13.125H11.25V16.875H7.5V13.125Z" fill="#444444"/>
<path d="M13.125 13.125H16.875V16.875H13.125V13.125Z" fill="#444444"/>
<path d="M18.75 13.125H22.5V16.875H18.75V13.125Z" fill="#444444"/>
</svg>
