<svg width="39" height="39" viewBox="0 0 39 39" fill="none" xmlns="http://www.w3.org/2000/svg">
<path d="M22 22L37.5593 37.5593M37.5593 37.5593V27.1864M37.5593 37.5593C33.9096 37.5593 27.7627 37.5593 27.7627 37.5593" stroke="black" stroke-width="2"/>
<path d="M22 16.5593L37.5593 1M37.5593 1L27.1864 1M37.5593 1C37.5593 4.64972 37.5593 10.7966 37.5593 10.7966" stroke="black" stroke-width="2"/>
<path d="M16.5596 16.5593L1.00025 1.00001M1.00025 1.00001L1.00025 11.3729M1.00025 1.00001C4.64997 1.00001 10.7969 1.00001 10.7969 1.00001" stroke="black" stroke-width="2"/>
<path d="M16.5596 22L1.00025 37.5593M1.00025 37.5593L11.3731 37.5593M1.00025 37.5593C1.00025 33.9096 1.00025 27.7627 1.00025 27.7627" stroke="black" stroke-width="2"/>
</svg>
