<svg width="28" height="28" viewBox="0 0 28 28" fill="none" xmlns="http://www.w3.org/2000/svg">
<path d="M13.9937 0C17.8567 0 21.3542 1.57081 23.8931 4.09956C26.4219 6.63916 27.9927 10.1367 27.9927 13.9997C27.9927 17.8626 26.4219 21.3602 23.8931 23.8998C21.3535 26.4285 17.8567 27.9993 13.9937 27.9993C10.1307 27.9993 6.63388 26.4285 4.10512 23.8998C1.56552 21.3602 0.00488281 17.8633 0.00488281 13.9997C0.00488281 10.1367 1.56485 6.63916 4.10444 4.09956C6.63388 1.57081 10.1307 0 13.9937 0ZM21.1284 13.2356C21.5481 13.2356 21.8816 13.58 21.8816 13.9997C21.8816 14.4193 21.5481 14.7637 21.1284 14.7637H14.0154H13.9937C13.7137 14.7637 13.4663 14.6024 13.3374 14.3766L13.3266 14.3658L13.3157 14.3441V14.3332L13.3049 14.3115L13.2941 14.2898V14.279L13.2832 14.2573L13.2724 14.2464V14.2247L13.2615 14.203V14.1922L13.2507 14.1705V14.1488V14.138V14.1271L13.2398 14.1163V14.0946V14.0729V14.0539V14.0431V14.0214V13.9997V4.88531C13.2398 4.46566 13.5734 4.1321 13.993 4.1321C14.4127 4.1321 14.7571 4.46566 14.7571 4.88531V13.2356H21.1284ZM22.8172 5.17615C20.5576 2.91654 17.437 1.5281 13.9937 1.5281C10.5504 1.5281 7.42979 2.91586 5.17018 5.17615C2.92142 7.43575 1.52213 10.5564 1.52213 13.9997C1.52213 17.443 2.92074 20.5636 5.17018 22.8239C7.42979 25.0835 10.5504 26.4719 13.9937 26.4719C17.437 26.4719 20.5576 25.0835 22.8172 22.8239C25.0768 20.5643 26.4761 17.4436 26.4761 13.9997C26.4761 10.5564 25.0775 7.43575 22.8172 5.17615Z" fill="white"/>
</svg>
