<?xml version="1.0" encoding="utf-8"?><svg width="26" height="26" xmlns="http://www.w3.org/2000/svg" viewBox="0 0 26 26"><path d="M13 1.574c-7.14 0-13 5.81-13 12.95v6.093a2.288 2.288 0 002.285 2.285h.762v-7.617h-.762c-.268 0-.522.055-.762.14v-.902C1.523 8.223 6.7 3.098 13 3.098c6.3 0 11.477 5.125 11.477 11.425v.902a2.258 2.258 0 00-.762-.14h-.762v7.617h.762A2.288 2.288 0 0026 20.617v-6.094c0-7.14-5.86-12.949-13-12.949z"/><path d="M6.855 13.762h-.761c-.842 0-1.524.682-1.524 1.523v7.617c0 .842.682 1.524 1.524 1.524h.761c.421 0 .762-.341.762-.762v-9.14a.762.762 0 00-.762-.762zM19.906 13.762h-.761a.762.762 0 00-.762.761v9.141c0 .42.34.762.762.762h.761c.842 0 1.524-.682 1.524-1.524v-7.617c0-.841-.682-1.523-1.524-1.523z"/></svg>