<?xml version="1.0" encoding="utf-8"?><svg width="15" height="16" xmlns="http://www.w3.org/2000/svg" viewBox="0 0 15 16"><path d="M10.312 0H4.687C2.1 0 0 2.239 0 5v6c0 2.761 2.099 5 4.687 5h5.625C12.901 16 15 13.761 15 11V5c0-2.761-2.1-5-4.688-5zm3.282 11c0 1.93-1.472 3.5-3.282 3.5H4.687c-1.809 0-3.28-1.57-3.28-3.5V5c0-1.93 1.471-3.5 3.28-3.5h5.625c1.81 0 3.282 1.57 3.282 3.5v6z"/><path d="M7.5 4C5.43 4 3.75 5.791 3.75 8s1.68 4 3.75 4c2.07 0 3.75-1.791 3.75-4S9.57 4 7.5 4zm0 6.5c-1.292 0-2.344-1.122-2.344-2.5 0-1.379 1.052-2.5 2.344-2.5 1.292 0 2.344 1.121 2.344 2.5 0 1.378-1.052 2.5-2.344 2.5zM11.531 4.233c.276 0 .5-.239.5-.533 0-.294-.224-.533-.5-.533s-.5.239-.5.533c0 .294.224.533.5.533z"/></svg>