<?xml version="1.0" encoding="utf-8"?><svg width="47" height="47" xmlns="http://www.w3.org/2000/svg" viewBox="0 0 47 47"><path d="M23.1 3.08a20.02 20.02 0 110 40.04 20.02 20.02 0 010-40.04zm0-3.08a23.1 23.1 0 100 46.2 23.1 23.1 0 000-46.2z"/><path d="M21.56 35.42V10.78l-8.147 4.866a8.547 8.547 0 00-4.173 7.346 8.547 8.547 0 004.02 7.254l8.3 5.174zm1.54-16.94v9.24l1.54-1.355a4.358 4.358 0 001.54-3.234 4.326 4.326 0 00-1.54-3.08L23.1 18.48z"/><path d="M24.64 31.416a.774.774 0 01-.154-1.54 6.93 6.93 0 000-13.583.786.786 0 11.308-1.54 8.47 8.47 0 010 16.602h-.154v.061z"/><path d="M28.074 34.896a.779.779 0 01-.23-1.54 10.78 10.78 0 000-20.574.804.804 0 11.461-1.54 12.32 12.32 0 010 23.516l-.23.138z"/></svg>