<?xml version="1.0" encoding="utf-8"?><svg width="32" height="31" xmlns="http://www.w3.org/2000/svg" viewBox="0 0 32 31"><path d="M16 0C7.454 0 .5 6.953.5 15.5S7.454 31 16 31c8.547 0 15.5-6.953 15.5-15.5S24.547 0 16 0zm0 29.808c-7.889 0-14.308-6.42-14.308-14.308C1.692 7.611 8.112 1.192 16 1.192c7.889 0 14.308 6.42 14.308 14.308 0 7.889-6.42 14.308-14.308 14.308z"/><path d="M23.451 14.904h-6.856V8.346a.596.596 0 10-1.192 0v6.558H8.547a.596.596 0 100 1.192h6.856v7.154a.596.596 0 101.192 0v-7.154h6.856a.596.596 0 100-1.192z"/></svg>