<?xml version="1.0" encoding="utf-8"?><svg viewBox="0 0 1895 322" xmlns="http://www.w3.org/2000/svg" xmlns:xlink="http://www.w3.org/1999/xlink"><style>:root>svg{display:none}:root>svg:target{display:block}</style><svg viewBox="0 0 26 26" id="audio_icon" xmlns="http://www.w3.org/2000/svg"><path d="M13 1.574c-7.14 0-13 5.81-13 12.95v6.093a2.288 2.288 0 002.285 2.285h.762v-7.617h-.762c-.268 0-.522.055-.762.14v-.902C1.523 8.223 6.7 3.098 13 3.098c6.3 0 11.477 5.125 11.477 11.425v.902a2.258 2.258 0 00-.762-.14h-.762v7.617h.762A2.288 2.288 0 0026 20.617v-6.094c0-7.14-5.86-12.949-13-12.949z"/><path d="M6.855 13.762h-.761c-.842 0-1.524.682-1.524 1.523v7.617c0 .842.682 1.524 1.524 1.524h.761c.421 0 .762-.341.762-.762v-9.14a.762.762 0 00-.762-.762zM19.906 13.762h-.761a.762.762 0 00-.762.761v9.141c0 .42.34.762.762.762h.761c.842 0 1.524-.682 1.524-1.524v-7.617c0-.841-.682-1.523-1.524-1.523z"/></svg><svg viewBox="0 0 26 23" id="close" xmlns="http://www.w3.org/2000/svg"><path d="M25.047 1.02L23.908 0 12.523 10.194 1.138 0 0 1.02l11.385 10.193L0 21.407l1.138 1.02 11.385-10.195 11.385 10.194 1.139-1.02-11.385-10.193L25.047 1.02z"/></svg><svg viewBox="0 0 8 16" id="fb" xmlns="http://www.w3.org/2000/svg"><path d="M4.953 5.448V3.467a.99.99 0 01.99-.99h.991V0H4.953A2.972 2.972 0 001.98 2.972v2.476H0v2.477h1.981v7.924h2.972V7.925h1.981l.99-2.477H4.954z"/></svg><svg viewBox="0 0 15 16" id="inst" xmlns="http://www.w3.org/2000/svg"><path d="M10.312 0H4.687C2.1 0 0 2.239 0 5v6c0 2.761 2.099 5 4.687 5h5.625C12.901 16 15 13.761 15 11V5c0-2.761-2.1-5-4.688-5zm3.282 11c0 1.93-1.472 3.5-3.282 3.5H4.687c-1.809 0-3.28-1.57-3.28-3.5V5c0-1.93 1.471-3.5 3.28-3.5h5.625c1.81 0 3.282 1.57 3.282 3.5v6z"/><path d="M7.5 4C5.43 4 3.75 5.791 3.75 8s1.68 4 3.75 4c2.07 0 3.75-1.791 3.75-4S9.57 4 7.5 4zm0 6.5c-1.292 0-2.344-1.122-2.344-2.5 0-1.379 1.052-2.5 2.344-2.5 1.292 0 2.344 1.121 2.344 2.5 0 1.378-1.052 2.5-2.344 2.5zM11.531 4.233c.276 0 .5-.239.5-.533 0-.294-.224-.533-.5-.533s-.5.239-.5.533c0 .294.224.533.5.533z"/></svg><svg viewBox="0 0 31 31" id="minus" xmlns="http://www.w3.org/2000/svg"><path d="M15.5 0C6.954 0 0 6.953 0 15.5S6.954 31 15.5 31C24.047 31 31 24.047 31 15.5S24.047 0 15.5 0zm0 29.808c-7.889 0-14.308-6.42-14.308-14.308 0-7.889 6.42-14.308 14.308-14.308 7.889 0 14.308 6.42 14.308 14.308 0 7.889-6.42 14.308-14.308 14.308z"/><path d="M23.25 14.904H7.75a.596.596 0 100 1.192h15.5a.596.596 0 100-1.192z"/></svg><svg viewBox="0 0 12 18" id="pin" xmlns="http://www.w3.org/2000/svg"><path d="M6 0C2.692 0 0 2.692 0 6c0 .993.248 1.978.72 2.851l4.952 8.956a.375.375 0 00.656 0l4.953-8.959A6.01 6.01 0 0012 6c0-3.308-2.692-6-6-6zm0 9C4.346 9 3 7.654 3 6s1.346-3 3-3 3 1.346 3 3-1.346 3-3 3z"/></svg><svg viewBox="0 0 47 47" id="play_icon" xmlns="http://www.w3.org/2000/svg"><path d="M23.1 3.08a20.02 20.02 0 110 40.04 20.02 20.02 0 010-40.04zm0-3.08a23.1 23.1 0 100 46.2 23.1 23.1 0 000-46.2z"/><path d="M21.56 35.42V10.78l-8.147 4.866a8.547 8.547 0 00-4.173 7.346 8.547 8.547 0 004.02 7.254l8.3 5.174zm1.54-16.94v9.24l1.54-1.355a4.358 4.358 0 001.54-3.234 4.326 4.326 0 00-1.54-3.08L23.1 18.48z"/><path d="M24.64 31.416a.774.774 0 01-.154-1.54 6.93 6.93 0 000-13.583.786.786 0 11.308-1.54 8.47 8.47 0 010 16.602h-.154v.061z"/><path d="M28.074 34.896a.779.779 0 01-.23-1.54 10.78 10.78 0 000-20.574.804.804 0 11.461-1.54 12.32 12.32 0 010 23.516l-.23.138z"/></svg><svg viewBox="0 0 32 31" id="plus" xmlns="http://www.w3.org/2000/svg"><path d="M16 0C7.454 0 .5 6.953.5 15.5S7.454 31 16 31c8.547 0 15.5-6.953 15.5-15.5S24.547 0 16 0zm0 29.808c-7.889 0-14.308-6.42-14.308-14.308C1.692 7.611 8.112 1.192 16 1.192c7.889 0 14.308 6.42 14.308 14.308 0 7.889-6.42 14.308-14.308 14.308z"/><path d="M23.451 14.904h-6.856V8.346a.596.596 0 10-1.192 0v6.558H8.547a.596.596 0 100 1.192h6.856v7.154a.596.596 0 101.192 0v-7.154h6.856a.596.596 0 100-1.192z"/></svg><svg viewBox="0 0 1895 322" id="prikhodkin" xmlns="http://www.w3.org/2000/svg"><path d="M16.207 322c-4.66 0-8.58-1.586-11.758-4.759C1.483 314.28 0 310.474 0 305.821V161.159c.212-16.708 4.131-31.725 11.758-45.049 7.627-13.324 18.008-23.793 31.143-31.406 13.135-7.826 27.966-11.738 44.49-11.738 16.737 0 31.673 3.912 44.809 11.738 13.135 7.613 23.516 18.082 31.143 31.406 7.838 13.324 11.758 28.341 11.758 45.049s-3.602 31.724-10.805 45.048c-6.991 13.113-16.631 23.582-28.919 31.407-12.287 7.614-26.164 11.42-41.63 11.42-12.5 0-24.046-2.537-34.639-7.613-10.38-5.288-19.279-12.373-26.694-21.255v85.655c0 4.653-1.483 8.459-4.449 11.42C25 320.414 21.08 322 16.207 322zm71.184-101.517c10.805 0 20.445-2.538 28.919-7.614 8.474-5.287 15.148-12.372 20.021-21.255 5.084-9.094 7.627-19.246 7.627-30.455 0-11.421-2.543-21.573-7.627-30.456-4.873-9.094-11.547-16.179-20.021-21.255-8.474-5.287-18.114-7.931-28.919-7.931-10.592 0-20.232 2.644-28.918 7.931-8.474 5.076-15.148 12.161-20.02 21.255-4.873 8.883-7.31 19.035-7.31 30.456 0 11.209 2.437 21.361 7.31 30.455 4.872 8.883 11.545 15.968 20.02 21.255 8.686 5.076 18.326 7.614 28.918 7.614zM239.334 247.766c-10.593 0-15.89-5.288-15.89-15.863V90.097c0-10.575 5.297-15.862 15.89-15.862 10.592 0 15.889 5.287 15.889 15.862v6.027c6.356-7.402 14.088-13.218 23.198-17.448 9.322-4.23 19.385-6.345 30.19-6.345 12.712 0 22.139 2.115 28.283 6.345 6.356 4.018 8.792 8.883 7.309 14.593-1.059 4.441-3.178 7.402-6.355 8.883-3.178 1.269-6.886 1.48-11.123.634-13.559-2.749-25.741-2.96-36.545-.634-10.805 2.326-19.386 6.662-25.741 13.007-6.144 6.344-9.216 14.381-9.216 24.11v92.634c0 10.575-5.297 15.863-15.889 15.863zM397.378 247.766c-4.661 0-8.58-1.481-11.758-4.442-2.966-3.172-4.449-7.085-4.449-11.738V90.414c0-4.865 1.483-8.777 4.449-11.738 3.178-2.961 7.097-4.442 11.758-4.442 4.873 0 8.792 1.48 11.758 4.442 2.966 2.96 4.449 6.873 4.449 11.738v141.172c0 4.653-1.483 8.566-4.449 11.738-2.966 2.961-6.885 4.442-11.758 4.442zm0-201.766c-5.72 0-10.699-2.01-14.936-6.028-4.025-4.23-6.038-9.2-6.038-14.91 0-5.71 2.013-10.575 6.038-14.593 4.237-4.23 9.216-6.345 14.936-6.345 5.72 0 10.593 2.115 14.618 6.345 4.237 4.018 6.356 8.883 6.356 14.593 0 5.71-2.119 10.68-6.356 14.91-4.025 4.019-8.898 6.028-14.618 6.028zM489.459 247.766c-4.66 0-8.474-1.375-11.44-4.125-2.754-2.961-4.131-6.767-4.131-11.42V15.545c0-4.653 1.377-8.354 4.131-11.104 2.966-2.96 6.78-4.441 11.44-4.441 4.661 0 8.369 1.48 11.123 4.441 2.966 2.75 4.449 6.451 4.449 11.104v129.117l77.222-68.841c3.178-2.961 6.674-4.336 10.487-4.124 4.026.211 7.415 1.903 10.169 5.075 2.967 3.173 4.344 6.662 4.132 10.47-.212 3.806-1.907 7.19-5.085 10.151l-58.473 52.028 61.651 75.503c2.754 3.384 3.919 7.085 3.496 11.104-.212 3.806-2.119 7.19-5.721 10.151-3.389 2.75-7.203 3.913-11.44 3.49-4.025-.212-7.415-2.009-10.169-5.393l-60.38-74.552-15.889 13.959v48.538c0 4.653-1.483 8.459-4.449 11.42-2.754 2.75-6.462 4.125-11.123 4.125zM671.023 248.083c-4.661 0-8.581-1.481-11.758-4.442-2.966-3.172-4.449-7.085-4.449-11.738V90.413c0-4.864 1.483-8.776 4.449-11.737 3.177-2.961 7.097-4.442 11.758-4.442 4.872 0 8.792 1.48 11.758 4.442 2.966 2.96 4.449 6.873 4.449 11.738v3.49c6.567-6.557 14.512-11.739 23.834-15.545 9.322-3.807 19.385-5.71 30.19-5.71 14.618 0 27.647 3.172 39.088 9.516 11.652 6.134 20.762 15.228 27.329 27.283 6.78 12.055 10.169 26.86 10.169 44.414v78.041c0 4.653-1.588 8.566-4.766 11.738-2.966 2.961-6.78 4.442-11.441 4.442-4.661 0-8.58-1.481-11.758-4.442-2.966-3.172-4.449-7.085-4.449-11.738v-78.041c0-17.977-4.873-31.09-14.618-39.338-9.534-8.46-21.504-12.69-35.91-12.69-8.898 0-16.949 1.798-24.152 5.394-7.203 3.595-12.923 8.459-17.16 14.593-4.238 5.922-6.356 12.795-6.356 20.62v89.462c0 4.653-1.483 8.566-4.449 11.738-2.966 2.961-6.886 4.442-11.758 4.442zm0-63.449c-4.661 0-8.581-1.48-11.758-4.441-2.966-3.172-4.449-7.085-4.449-11.738V16.179c0-4.864 1.483-8.777 4.449-11.738C662.442 1.481 666.362 0 671.023 0c4.872 0 8.792 1.48 11.758 4.441 2.966 2.961 4.449 6.874 4.449 11.738v152.276c0 4.653-1.483 8.566-4.449 11.738-2.966 2.961-6.886 4.441-11.758 4.441zM1235.87 250.997c-16.6 0-31.61-3.836-45.02-11.51-13.2-7.887-23.74-18.545-31.61-31.974-7.67-13.43-11.5-28.564-11.5-45.404 0-16.84 3.51-31.867 10.54-45.083 7.24-13.43 17.03-23.981 29.38-31.655 12.34-7.887 26.29-11.83 41.83-11.83 12.56 0 24.16 2.664 34.8 7.993 10.64 5.116 19.58 12.15 26.82 21.103v-86.33c0-4.903 1.49-8.846 4.47-11.83 3.2-2.985 7.13-4.477 11.82-4.477 4.89 0 8.83 1.492 11.81 4.476 2.98 2.985 4.47 6.928 4.47 11.83V162.11c0 16.84-3.94 31.974-11.81 45.404-7.67 13.429-18.1 24.087-31.29 31.974-13.2 7.674-28.1 11.51-44.71 11.51zm0-28.776c10.86 0 20.54-2.558 29.06-7.674 8.51-5.329 15.22-12.577 20.12-21.743 4.89-9.166 7.34-19.397 7.34-30.695 0-11.511-2.45-21.742-7.34-30.695-4.9-8.953-11.61-15.987-20.12-21.103-8.52-5.329-18.2-7.994-29.06-7.994-10.64 0-20.33 2.665-29.06 7.994-8.51 5.116-15.32 12.15-20.43 21.103-4.9 8.953-7.35 19.184-7.35 30.695 0 11.298 2.45 21.529 7.35 30.695 5.11 9.166 11.92 16.414 20.43 21.743 8.73 5.116 18.42 7.674 29.06 7.674zM1396.84 249.718c-4.68 0-8.51-1.385-11.49-4.156-2.77-2.984-4.15-6.821-4.15-11.511V15.667c0-4.69 1.38-8.42 4.15-11.19 2.98-2.985 6.81-4.477 11.49-4.477 4.69 0 8.41 1.492 11.18 4.476 2.98 2.771 4.47 6.502 4.47 11.191v130.135l77.59-69.384c3.2-2.984 6.71-4.37 10.54-4.156 4.04.213 7.45 1.918 10.22 5.116 2.98 3.197 4.36 6.714 4.15 10.551-.21 3.837-1.92 7.248-5.11 10.232l-58.75 52.437 61.94 76.099c2.77 3.411 3.94 7.141 3.52 11.191-.22 3.837-2.13 7.248-5.75 10.232-3.41 2.771-7.24 3.943-11.5 3.517-4.04-.213-7.45-2.025-10.22-5.436l-60.66-75.139-15.97 14.069v48.92c0 4.69-1.49 8.527-4.47 11.511-2.77 2.771-6.49 4.156-11.18 4.156zM1582.47 249.718c-4.68 0-8.62-1.492-11.81-4.476-2.98-3.197-4.47-7.141-4.47-11.83V91.126c0-4.902 1.49-8.846 4.47-11.83 3.19-2.984 7.13-4.476 11.81-4.476 4.9 0 8.83 1.492 11.82 4.476 2.98 2.984 4.47 6.928 4.47 11.83v142.286c0 4.689-1.49 8.633-4.47 11.83-2.99 2.984-6.92 4.476-11.82 4.476zm0-203.355c-5.75 0-10.75-2.026-15.01-6.075-4.04-4.264-6.06-9.273-6.06-15.028 0-5.756 2.02-10.659 6.06-14.709 4.26-4.263 9.26-6.394 15.01-6.394s10.64 2.131 14.69 6.395c4.26 4.05 6.39 8.952 6.39 14.708 0 5.755-2.13 10.764-6.39 15.027-4.05 4.05-8.94 6.076-14.69 6.076zM1675.63 250.038c-4.68 0-8.62-1.492-11.81-4.476-2.98-3.198-4.47-7.141-4.47-11.831V91.126c0-4.902 1.49-8.846 4.47-11.83 3.19-2.984 7.13-4.476 11.81-4.476 4.9 0 8.84 1.492 11.82 4.476 2.98 2.984 4.47 6.928 4.47 11.83v3.518c6.6-6.608 14.58-11.83 23.95-15.668 9.36-3.837 19.47-5.755 30.33-5.755 14.69 0 27.78 3.197 39.27 9.592 11.71 6.182 20.87 15.348 27.47 27.498 6.81 12.15 10.21 27.071 10.21 44.764v78.656c0 4.69-1.59 8.633-4.79 11.831-2.98 2.984-6.81 4.476-11.49 4.476-4.68 0-8.62-1.492-11.82-4.476-2.98-3.198-4.47-7.141-4.47-11.831v-78.656c0-18.119-4.89-31.335-14.68-39.648-9.58-8.527-21.61-12.79-36.09-12.79-8.94 0-17.03 1.812-24.26 5.436-7.24 3.624-12.99 8.526-17.25 14.708-4.25 5.968-6.38 12.896-6.38 20.783v90.167c0 4.69-1.49 8.633-4.47 11.831-2.98 2.984-6.92 4.476-11.82 4.476zM1872.74 250.883c-5.88 0-11.03-2.084-15.44-6.253-4.19-4.377-6.29-9.484-6.29-15.32 0-6.045 2.1-11.152 6.29-15.321 4.41-4.377 9.56-6.566 15.44-6.566 6.08 0 11.23 2.189 15.43 6.566 4.2 4.169 6.3 9.276 6.3 15.321 0 5.836-2.1 10.943-6.3 15.32-4.2 4.169-9.35 6.253-15.43 6.253z"/><path fill-rule="evenodd" clip-rule="evenodd" d="M949.005 103.27c-33.017 0-59.544 26.42-59.544 58.718 0 32.297 26.527 58.717 59.544 58.717 1.144 0 2.279-.032 3.404-.094 8.368-.463 15.528 5.928 15.992 14.276.465 8.347-5.942 15.49-14.31 15.954a92.29 92.29 0 01-5.086.14c-49.514 0-89.892-39.712-89.892-88.993 0-49.281 40.378-88.994 89.892-88.994 2.741 0 5.457.122 8.142.361 8.347.744 14.51 8.097 13.765 16.425-.745 8.327-8.117 14.475-16.464 13.732a61.084 61.084 0 00-5.443-.242zM1015.52 103.27c-1.15 0-2.28.032-3.41.094-8.36.464-15.523-5.928-15.987-14.275-.465-8.348 5.947-15.49 14.307-15.954a92.14 92.14 0 015.09-.14c49.51 0 89.89 39.712 89.89 88.993 0 49.281-40.38 88.993-89.89 88.993-2.74 0-5.46-.122-8.14-.361-8.35-.744-14.513-8.097-13.768-16.424.746-8.328 8.118-14.476 16.468-13.732 1.79.159 3.6.241 5.44.241 33.02 0 59.54-26.42 59.54-58.717 0-32.298-26.52-58.718-59.54-58.718z"/></svg><svg viewBox="0 0 18 18" id="yt" xmlns="http://www.w3.org/2000/svg"><g clip-path="url(#jclip0)"><path d="M11.544 8.034L7.644 5.9a.71.71 0 00-.71.012.71.71 0 00-.35.616v4.231c0 .255.13.485.349.615a.714.714 0 00.706.016l3.9-2.097a.716.716 0 00.005-1.26zm-3.926 2.193V7.065l2.915 1.595-2.915 1.567z"/><path d="M17.524 5.294v-.009c-.016-.142-.165-1.406-.78-2.048-.71-.757-1.514-.848-1.902-.892a4.69 4.69 0 01-.087-.01l-.031-.004c-2.334-.17-5.859-.193-5.894-.193h-.006c-.036 0-3.56.023-5.915.193l-.031.003-.083.01c-.383.044-1.18.136-1.891.92C.318 3.9.149 5.137.132 5.276l-.002.018C.125 5.353 0 6.76 0 8.174v1.32c0 1.414.125 2.821.13 2.88v.01c.016.14.164 1.38.776 2.023.668.73 1.512.828 1.966.88.072.008.134.015.176.022l.04.006c1.348.128 5.573.191 5.753.194h.01c.036 0 3.56-.023 5.894-.193l.03-.003a3.82 3.82 0 01.1-.012c.38-.04 1.173-.124 1.875-.897.585-.636.755-1.873.772-2.012l.002-.018c.005-.059.13-1.466.13-2.88v-1.32c0-1.414-.125-2.821-.13-2.88zm-.905 4.2a36.2 36.2 0 01-.125 2.78c-.044.34-.222 1.122-.507 1.432-.44.484-.892.532-1.221.567l-.11.012c-2.258.163-5.65.188-5.806.19-.175-.003-4.338-.067-5.644-.188-.067-.011-.14-.02-.216-.028-.387-.045-.916-.105-1.323-.553l-.01-.01c-.28-.292-.453-1.024-.497-1.419a36.15 36.15 0 01-.126-2.782V8.172c0-1.306.114-2.652.125-2.778.053-.401.235-1.136.508-1.433.453-.499.93-.554 1.247-.59l.084-.01c2.29-.164 5.706-.189 5.829-.19.122.001 3.537.026 5.807.19l.091.01c.325.037.816.093 1.267.574l.004.005c.28.292.454 1.036.498 1.44.008.088.125 1.453.125 2.782v1.322z"/></g><defs><clipPath id="jclip0"><path d="M0 0h17.654v17.654H0z"/></clipPath></defs></svg></svg>