<svg width="170" height="170" fill="none" xmlns="http://www.w3.org/2000/svg"><path d="M152.869 149.326l-11.086-44.346c-1.856-7.415-8.491-12.557-16.134-12.557H97.933V60.975c0-12.433-13.142-20.328-24.067-14.875L51.693 57.186c-5.67 2.835-9.155 8.535-9.155 14.875v10.25a46.237 46.237 0 00-17.656 15.136c-5.396 7.758-8.248 16.87-8.248 26.351 0 25.47 20.722 46.193 46.193 46.193 24.852 0 45.179-19.729 46.153-44.346h3.685l7.937 31.754c2.248 8.974 11.307 14.325 20.167 12.096 8.893-2.221 14.321-11.267 12.1-20.169zM56.651 67.102l22.17-11.084a5.569 5.569 0 014.731-.105c1.974.872 3.332 2.855 3.332 5.062v23.342a46.168 46.168 0 00-11.123-4.876v-.526a5.543 5.543 0 00-5.543-5.544c-3.062 0-5.506 2.482-5.506 5.544v26.405c0 3.057-2.524 5.544-5.58 5.544a5.55 5.55 0 01-5.544-5.544V72.061a5.513 5.513 0 013.063-4.96zm6.176 91.803c-19.358 0-35.107-15.749-35.107-35.107 0-11.646 5.642-22.182 14.818-28.651v10.173c0 9.17 7.423 16.63 16.593 16.63s16.63-7.46 16.63-16.63V91.15a34.952 34.952 0 0112.55 8.49c.068.074.134.148.205.217.431.464.854.934 1.26 1.42.073.097.149.192.23.284a35.07 35.07 0 017.928 22.236c0 19.359-15.749 35.108-35.107 35.108zm75.247-.163a5.536 5.536 0 01-6.717-4.034l-8.986-35.95c-.617-2.467-2.834-4.161-5.377-4.161h-8.9a46.295 46.295 0 00-3.774-11.124h21.329a5.537 5.537 0 015.378 4.197l11.086 44.343a5.554 5.554 0 01-4.039 6.729z" fill="#fff"/><path d="M86.847 0C74.62 0 64.674 9.947 64.674 22.173c0 12.226 9.947 22.172 22.172 22.172 12.227 0 22.173-9.946 22.173-22.172S99.073 0 86.847 0zm0 33.259c-6.113 0-11.087-4.974-11.087-11.086 0-6.113 4.974-11.087 11.087-11.087 6.113 0 11.086 4.974 11.086 11.087 0 6.113-4.973 11.086-11.087 11.086z" fill="#fff"/></svg>