<svg width="28" height="28" fill="none" xmlns="http://www.w3.org/2000/svg"><path d="M26.844 0H1.156A.719.719 0 00.44.717a.72.72 0 00.717.717h1.548v25.831a.72.72 0 00.376.633.707.707 0 00.735-.035l3.112-2.073 3.125 2.079a.713.713 0 00.794 0l3.113-2.073 3.124 2.079a.713.713 0 00.795 0l3.112-2.073 3.124 2.079a.726.726 0 00.735.035.72.72 0 00.377-.633l-.012-25.831h1.63a.719.719 0 00.717-.717.735.735 0 00-.717-.735zm-3.046 25.927l-2.408-1.601a.713.713 0 00-.794 0l-3.113 2.079-3.124-2.079a.713.713 0 00-.795 0l-3.112 2.073-3.125-2.073a.713.713 0 00-.794 0l-2.396 1.595V1.428h19.655l.006 24.499z" fill="#fff"/><path d="M7.436 11.446h7.509a.719.719 0 00.717-.717.719.719 0 00-.717-.717h-7.51a.719.719 0 00-.716.717c0 .395.316.717.717.717zm0 2.491h5.627a.719.719 0 00.717-.716.719.719 0 00-.717-.717H7.436a.719.719 0 00-.717.716c0 .395.316.717.717.717zm11.259-2.491h1.876a.719.719 0 00.717-.717.719.719 0 00-.717-.717h-1.876a.719.719 0 00-.716.717c0 .395.316.717.716.717zm0 2.491h1.876a.719.719 0 00.717-.716.719.719 0 00-.717-.717h-1.876a.719.719 0 00-.716.716c0 .395.316.717.716.717zM7.436 5.693h7.509a.719.719 0 00.717-.717.719.719 0 00-.717-.717h-7.51a.719.719 0 00-.716.717c0 .395.316.717.717.717zm0 2.485h5.627a.719.719 0 00.717-.717.719.719 0 00-.717-.717H7.436a.719.719 0 00-.717.717c0 .395.316.717.717.717zm11.259-2.485h1.876a.719.719 0 00.717-.717.719.719 0 00-.717-.717h-1.876a.719.719 0 00-.716.717c0 .395.316.717.716.717zm0 2.485h1.876a.719.719 0 00.717-.717.719.719 0 00-.717-.717h-1.876a.719.719 0 00-.716.717c0 .395.316.717.716.717zM7.436 17.27h7.509a.719.719 0 00.717-.716.719.719 0 00-.717-.717h-7.51a.719.719 0 00-.716.716c0 .395.316.717.717.717zm0 2.486h5.627a.719.719 0 00.717-.717.719.719 0 00-.717-.717H7.436a.719.719 0 00-.717.717c0 .394.316.717.717.717zm11.259-2.486h1.876a.719.719 0 00.717-.716.719.719 0 00-.717-.717h-1.876a.719.719 0 00-.716.716c0 .395.316.717.716.717zm0 2.486h1.876a.719.719 0 00.717-.717.719.719 0 00-.717-.717h-1.876a.719.719 0 00-.716.717c0 .394.316.717.716.717z" fill="#fff"/></svg>