<svg width="42" height="42" fill="none" xmlns="http://www.w3.org/2000/svg"><path d="M35.94 28.66a1.442 1.442 0 00.075-1.799l-1.534-2.11a1.652 1.652 0 00-1.333-.678h-.812v-2.087c0-.847-1.012-1.285-1.63-.711l-.79.733h-1.208v-.257a.97.97 0 00-.97-.97h-.931c.268-.378.214-.871-.024-1.155l-1.705-2.043 2.498-5.047 4.33-1.135 1.198.04c.654.021 1.097-.593.99-1.112l-.24-1.162a.977.977 0 00-.877-.858l-.46-.041.563-.78a.97.97 0 00-.392-1.454l-3.024-1.35a.976.976 0 00-1.024.147l-.749.637-1.306-.119c-3.06-4.192-2.857-3.952-3.049-4.083C21.427-.184 21.75-.168 20.54.235a.97.97 0 00-.484 1.482l.666.94-2.834 3.176-3.358 1.732a.97.97 0 00-.445.475l-1.275 2.927-.084-.009-.062-.413a.967.967 0 00-.726-.798c-1.23-.306-.949-.232-1.397-.362.508-.482.416-1.144-.001-1.491a694.537 694.537 0 00-1.453-1.29.97.97 0 00-1.376.168L5.904 9.135a.973.973 0 00-.03 1.134l1.762 2.489-.262.109a.97.97 0 00-.447 1.413l.005.01.66 1.004a.963.963 0 00.91.442l1.126-.109 2.763 4.623a.616.616 0 001.057-.632l-2.849-4.764a.974.974 0 00-.926-.467l-1.133.109-.404-.614.274-.114a.966.966 0 00.552-.603.967.967 0 00-.104-.81l-.019-.028L7 9.73l1.519-1.986 1.015.902c-.149.143-.59.482-.442 1.092a.971.971 0 00.671.702c1.045.305.543.17 1.711.46l.066.44a.97.97 0 00.852.82l.474.052a.965.965 0 00.996-.576l1.315-3.02c3.603-1.858 3.433-1.743 3.598-1.927l3.005-3.368a.965.965 0 00.067-1.207l-.583-.822.093-.031 1.447.994L25.66 6.17a.97.97 0 00.696.394c2.185.198 1.75.336 2.957-.69l2.582 1.153-.643.891a.97.97 0 00.698 1.534l.72.065.14.683c-1.37-.045-.248-.243-5.66 1.175a.971.971 0 00-.624.508l-2.628 5.308a.975.975 0 00.103 1.022l1.677 2.01c-.057.07-.027.031-.252.34a.911.911 0 00.737 1.448h1.315v.257c0 .534.437.97.97.97h1.57c.465 0 .669-.266 1.087-.655v1.75c0 .535.436.97.97.97 1.113 0 1.25-.05 1.41.172l1.535 2.11a.217.217 0 01-.012.27l-.565.656c-.235.273-.129-.023-1.292 6.141a.965.965 0 00.127.688l1.076 1.748-2.056 3.574-5.557-3.604a.615.615 0 00-.67 1.033l5.772 3.742a.97.97 0 001.385-.32l2.27-3.946a.968.968 0 00-.016-.992l-1.104-1.794 1.042-5.52.52-.6z" fill="#fff"/><path d="M24.41 35.55l-4.153-2.691a.703.703 0 01-.293-.521l-.165-1.739a1.787 1.787 0 00-.246-.766l-4.81-7.991a.616.616 0 00-1.055.63l4.809 7.992c.043.072.07.154.077.244l.164 1.738a1.93 1.93 0 00.823 1.428l.017.011 4.162 2.697a.615.615 0 10.67-1.032z" fill="#fff"/></svg>