<svg width="23" height="23" fill="none" xmlns="http://www.w3.org/2000/svg"><path d="M21.154 15.097c-1.408 0-2.79-.22-4.1-.653-.654-.223-1.397-.05-1.824.384l-2.586 1.952c-2.999-1.6-4.846-3.448-6.425-6.424l1.894-2.519c.493-.492.67-1.21.458-1.884a13.079 13.079 0 01-.656-4.107A1.848 1.848 0 006.069 0H1.846A1.848 1.848 0 000 1.846C0 13.51 9.49 23 21.154 23A1.848 1.848 0 0023 21.154v-4.212a1.848 1.848 0 00-1.846-1.845zm.568 6.057a.568.568 0 01-.568.568c-10.96 0-19.876-8.916-19.876-19.876 0-.314.254-.568.568-.568h4.223c.314 0 .568.254.568.568 0 1.545.243 3.062.718 4.499.066.212.012.431-.202.655L4.956 9.908a.64.64 0 00-.06.675c1.793 3.523 3.971 5.701 7.52 7.52.215.112.48.088.676-.06l2.975-2.254a.564.564 0 01.58-.134c1.446.478 2.963.72 4.508.72.313 0 .567.254.567.567v4.212z" fill="#fff"/></svg>