<svg width="28" height="28" fill="none" xmlns="http://www.w3.org/2000/svg"><path d="M13.994 0c3.863 0 7.36 1.57 9.9 4.1a13.993 13.993 0 014.099 9.9c0 3.863-1.571 7.36-4.1 9.9a13.991 13.991 0 01-9.9 4.1c-3.862 0-7.36-1.572-9.888-4.1a13.947 13.947 0 01-4.1-9.9c0-3.863 1.56-7.36 4.1-9.9A13.95 13.95 0 0113.993 0zm7.134 13.236c.42 0 .754.344.754.764 0 .42-.334.764-.754.764h-7.134a.764.764 0 01-.657-.387l-.01-.011-.011-.022v-.01l-.011-.022-.01-.022v-.011l-.012-.022-.01-.01v-.022l-.011-.022v-.01l-.011-.022v-.043l-.011-.012V4.885c0-.42.333-.753.753-.753s.764.334.764.753v8.35h6.371zm1.69-8.06a12.434 12.434 0 00-8.824-3.648A12.431 12.431 0 005.17 5.176 12.48 12.48 0 001.522 14a12.48 12.48 0 003.648 8.824 12.434 12.434 0 008.824 3.648c3.443 0 6.564-1.389 8.823-3.648A12.444 12.444 0 0026.477 14a12.44 12.44 0 00-3.66-8.824z" fill="#fff"/></svg>