<svg width="18" height="18" fill="none" xmlns="http://www.w3.org/2000/svg"><g clip-path="url(#clip0)" fill="#000"><path d="M11.544 8.034L7.644 5.9a.71.71 0 00-.71.012.71.71 0 00-.35.616v4.231c0 .255.13.485.349.615a.714.714 0 00.706.016l3.9-2.097a.716.716 0 00.005-1.26zm-3.926 2.193V7.065l2.915 1.595-2.915 1.567z"/><path d="M17.524 5.294v-.009c-.016-.142-.165-1.406-.78-2.048-.71-.757-1.514-.848-1.902-.892a4.69 4.69 0 01-.087-.01l-.031-.004c-2.334-.17-5.859-.193-5.894-.193h-.006c-.036 0-3.56.023-5.915.193l-.031.003-.083.01c-.383.044-1.18.136-1.891.92C.318 3.9.149 5.137.132 5.276l-.002.018C.125 5.353 0 6.76 0 8.174v1.32c0 1.414.125 2.821.13 2.88v.01c.016.14.164 1.38.776 2.023.668.73 1.512.828 1.966.88.072.008.134.015.176.022l.04.006c1.348.128 5.573.191 5.753.194h.01c.036 0 3.56-.023 5.894-.193l.03-.003a3.82 3.82 0 01.1-.012c.38-.04 1.173-.124 1.875-.897.585-.636.755-1.873.772-2.012l.002-.018c.005-.059.13-1.466.13-2.88v-1.32c0-1.414-.125-2.821-.13-2.88zm-.905 4.2a36.2 36.2 0 01-.125 2.78c-.044.34-.222 1.122-.507 1.432-.44.484-.892.532-1.221.567l-.11.012c-2.258.163-5.65.188-5.806.19-.175-.003-4.338-.067-5.644-.188a3.824 3.824 0 00-.216-.028c-.387-.045-.916-.105-1.323-.553l-.01-.01c-.28-.292-.453-1.024-.497-1.419a36.15 36.15 0 01-.126-2.782V8.172c0-1.306.114-2.652.125-2.778.053-.401.235-1.136.508-1.433.453-.499.93-.554 1.247-.59l.084-.01c2.29-.164 5.706-.189 5.829-.19.122.001 3.537.026 5.807.19l.091.01c.325.037.816.093 1.267.574l.004.005c.28.292.454 1.036.498 1.44.008.088.125 1.453.125 2.782v1.322z"/></g><defs><clipPath id="clip0"><path fill="#fff" d="M0 0h17.654v17.654H0z"/></clipPath></defs></svg>